<?xml version="1.0" standalone="no"?>
<!DOCTYPE svg PUBLIC "-//W3C//DTD SVG 20010904//EN"
 "http://www.w3.org/TR/2001/REC-SVG-20010904/DTD/svg10.dtd">
<svg version="1.0" xmlns="http://www.w3.org/2000/svg"
 width="412.000000pt" height="412.000000pt" viewBox="0 0 412.000000 412.000000"
 preserveAspectRatio="xMidYMid meet">
<metadata>
Created by potrace 1.14, written by Peter Selinger 2001-2017
</metadata>
<g transform="translate(0.000000,412.000000) scale(0.100000,-0.100000)"
fill="#000000" stroke="none">
<path d="M401 3614 c-218 -59 -381 -268 -381 -491 l0 -63 540 0 540 0 0 285 0
285 -322 -1 c-249 0 -335 -4 -377 -15z"/>
<path d="M1350 2140 l0 -1490 874 0 874 0 211 -218 211 -217 0 216 0 217 70
16 c193 43 345 189 395 377 12 45 15 225 15 1099 0 1135 2 1089 -56 1209 -36
74 -151 189 -225 225 -120 58 -69 56 -1266 56 l-1103 0 0 -1490z m1000 975 l0
-195 185 0 185 0 0 -170 0 -170 -185 0 -185 0 0 -263 c0 -293 5 -329 63 -414
68 -99 207 -162 327 -148 l57 7 28 -49 c40 -69 127 -172 179 -213 25 -19 44
-39 42 -45 -5 -18 -170 -73 -256 -85 -299 -41 -614 129 -749 405 -70 142 -74
164 -78 503 l-5 302 -139 0 -139 0 0 170 0 170 140 0 140 0 0 195 0 195 195 0
195 0 0 -195z"/>
<path d="M415 2758 c47 -56 92 -149 105 -217 6 -33 10 -399 10 -972 l0 -919
285 0 285 0 0 1075 0 1075 -361 0 -361 0 37 -42z"/>
</g>
</svg>
